<?xml version="1.0" encoding="UTF-8"?>
<!DOCTYPE svg PUBLIC "-//W3C//DTD SVG 1.1//EN" "http://www.w3.org/Graphics/SVG/1.1/DTD/svg11.dtd">
<!-- Creator: CorelDRAW -->
<svg xmlns="http://www.w3.org/2000/svg" xml:space="preserve" width="210mm" height="297mm" version="1.1" style="shape-rendering:geometricPrecision; text-rendering:geometricPrecision; image-rendering:optimizeQuality; fill-rule:evenodd; clip-rule:evenodd"
viewBox="0 0 21000 29700"
 xmlns:xlink="http://www.w3.org/1999/xlink"
 xmlns:xodm="http://www.corel.com/coreldraw/odm/2003">
 <defs>
  <style type="text/css">
   <![CDATA[
    .fil0 {fill:#373435}
   ]]>
  </style>
 </defs>
 <g id="Слой_x0020_1">
  <metadata id="CorelCorpID_0Corel-Layer"/>
  <path class="fil0" d="M7291 12735.98c11.68,769.63 -719.7,1088.37 -1407.83,768.49 -793.84,-369.05 -1117.96,-955 -1143.31,-1602.2 -44.96,-1146.95 579.13,-2100.85 1448.96,-2768.99 1504.77,-1155.9 3439.97,-1269.57 5331.32,-1195.74 2570.98,100.32 5605.74,642.98 7644.26,-1097.02 -227.34,1894.91 -2472.9,2082.61 -4333.74,2044.36 -1110.72,-22.84 -3054.5,-291.72 -4913.56,-125.09 -2392.65,214.48 -4618.26,1062.91 -4463.23,3161.3 76.79,1039.27 922.45,1729.57 1837.13,814.89z"/>
  <path class="fil0" d="M4473.63 18484.58c-291.77,-4.07 -483.07,31.77 -627.22,119.74 -867.56,529.57 -544.77,1670.92 198.13,2172.78 1358.77,917.95 2674.61,336.28 3725.37,-689.9 1425.83,-1392.42 2085.8,-3397.73 2675.38,-5420.87 452.62,-89.05 908.46,-165.38 1369.71,-237.01 -1281.16,3990.49 -2452.62,7940.89 -4891.99,8551.11 -520.48,130.22 -1055.27,106.26 -1524.86,-178.56 -297.03,-180.14 -449.29,-555.22 -424.64,-1319.2 -947.11,281 -833.6,1051.57 -449.08,1431.67 640.7,633.39 1975.13,765.76 2713.19,643.64 1769.27,-292.81 3032.74,-2241.01 3720.62,-3744.47 261.63,-571.84 482.36,-1159.99 673.09,-1734.72 385.92,-1162.92 729.69,-2470.1 1091.48,-3785.56 406.43,-59.73 817.96,-119.91 1236.05,-185.8 -148.35,1068.98 -221.01,1546.2 436.62,2519.49 -44.47,-1956.98 365.59,-3350.43 1020.03,-5225.16 -890.43,585.69 -923.02,776.53 -1333.8,1814.17 -338.2,61.22 -713.52,122.38 -1110.99,188.81 728.58,-2563.78 1577.53,-5042.39 2995.48,-6422.02 -1739.44,0 -3243.37,1175.61 -4392.68,2632.45 -1020.24,1293.19 -1506.9,2308.2 -1868.09,3456.67 -110.67,351.88 -213.08,739.56 -315.73,1147.67 -1020.71,352.21 -1911.55,834.7 -2429.43,1533.9 752.85,-349.58 1498.94,-605.09 2248.44,-804.26 -571.31,2304.8 -1293.73,4949.82 -3506.59,5540.99 -1001.17,267.51 -1742.32,-183.88 -1228.49,-2005.56zm6207.97 -4635.65c781.92,-2704.34 1605.68,-5296.71 4147.05,-6343.12 -1156.26,1527.96 -1978.33,3755.56 -2730.57,6049.88 -464.76,84.41 -943.56,179.81 -1416.48,293.24z"/>
 </g>
</svg>
